<svg width="25" height="25" viewBox="0 0 25 25" fill="none" xmlns="http://www.w3.org/2000/svg">
<g clip-path="url(#clip0_2_206)">
<path d="M8.75 12.5C11.5117 12.5 13.75 9.70215 13.75 6.25C13.75 2.79785 11.5117 0 8.75 0C5.98828 0 3.75 2.79785 3.75 6.25C3.75 9.70215 5.98828 12.5 8.75 12.5ZM12.25 14.0625H11.5977C10.7305 14.5605 9.76562 14.8438 8.75 14.8438C7.73438 14.8438 6.77344 14.5605 5.90234 14.0625H5.25C2.35156 14.0625 0 17.002 0 20.625V22.6563C0 23.9502 0.839844 25 1.875 25H12.6133C12.5195 24.668 12.4805 24.3164 12.5117 23.96L12.7773 20.9863L12.8242 20.4443L13.1328 20.0586L16.1523 16.2842C15.1953 14.9316 13.8086 14.0625 12.25 14.0625ZM14.0195 21.1572L13.7539 24.1357C13.7109 24.6338 14.0469 25.0537 14.4414 24.9951L16.8203 24.6631L22.207 17.9297L19.4062 14.4287L14.0195 21.1572ZM24.7266 13.1299L23.2461 11.2793C22.8828 10.8252 22.2891 10.8252 21.9258 11.2793L20.4492 13.125L20.2891 13.3252L23.0938 16.8262L24.7266 14.7852C25.0898 14.3262 25.0898 13.5889 24.7266 13.1299Z" fill="#FFD0EC"/>
</g>
<defs>
<clipPath id="clip0_2_206">
<rect width="25" height="25" fill="white"/>
</clipPath>
</defs>
</svg>
