<svg width="25" height="25" viewBox="0 0 25 25" fill="none" xmlns="http://www.w3.org/2000/svg">
<path d="M10.4167 19.7916C10.1733 19.7921 9.93741 19.7074 9.75 19.5521C9.64452 19.4646 9.55734 19.3572 9.49343 19.236C9.42952 19.1148 9.39015 18.9822 9.37757 18.8458C9.36499 18.7093 9.37945 18.5718 9.42012 18.4409C9.46079 18.3101 9.52687 18.1886 9.61459 18.0833L14.2813 12.5L9.78125 6.90623C9.69473 6.79968 9.63011 6.67708 9.59112 6.54548C9.55213 6.41387 9.53953 6.27586 9.55405 6.13937C9.56857 6.00288 9.60992 5.87061 9.67573 5.75016C9.74153 5.6297 9.8305 5.52344 9.9375 5.43748C10.0453 5.34265 10.1715 5.27112 10.3082 5.22738C10.445 5.18364 10.5893 5.16864 10.7321 5.18331C10.8749 5.19798 11.0131 5.24201 11.1381 5.31264C11.2631 5.38327 11.3721 5.47897 11.4583 5.59373L16.4896 11.8437C16.6428 12.0301 16.7266 12.2639 16.7266 12.5052C16.7266 12.7465 16.6428 12.9803 16.4896 13.1666L11.2813 19.4166C11.1768 19.5427 11.044 19.6424 10.8938 19.7075C10.7436 19.7727 10.5801 19.8015 10.4167 19.7916Z" fill="#FFD0EC"/>
</svg>
