<svg width="32" height="30" viewBox="0 0 32 30" fill="none" xmlns="http://www.w3.org/2000/svg">
<path d="M31.1055 14.7592L17.5674 1.22811L16.66 0.320671C16.4532 0.115276 16.1736 0 15.8821 0C15.5907 0 15.3111 0.115276 15.1043 0.320671L0.658829 14.7592C0.446968 14.9702 0.279531 15.2215 0.1664 15.4984C0.05327 15.7752 -0.00326058 16.0718 0.000145225 16.3708C0.0141598 17.6041 1.04073 18.5886 2.27401 18.5886H3.76305V30H28.0012V18.5886H29.5218C30.1209 18.5886 30.685 18.3539 31.109 17.93C31.3177 17.7219 31.4831 17.4745 31.5956 17.202C31.708 16.9296 31.7653 16.6375 31.7641 16.3428C31.7641 15.7472 31.5294 15.1831 31.1055 14.7592ZM17.8442 27.4774H13.9201V20.33H17.8442V27.4774ZM25.4786 16.066V27.4774H20.0865V19.4891C20.0865 18.7148 19.4594 18.0876 18.6851 18.0876H13.0792C12.3049 18.0876 11.6778 18.7148 11.6778 19.4891V27.4774H6.28567V16.066H2.92218L15.8856 3.11307L16.695 3.92241L28.8456 16.066H25.4786Z" fill="#FFD0EC"/>
</svg>
