<svg width="30" height="30" viewBox="0 0 30 30" fill="none" xmlns="http://www.w3.org/2000/svg">
<g clip-path="url(#clip0_13_172)">
<path d="M11.875 4.01786C12.8639 4.01786 13.8306 4.33205 14.6529 4.9207C15.4751 5.50935 16.116 6.34602 16.4944 7.32491C16.8728 8.3038 16.9719 9.38094 16.7789 10.4201C16.586 11.4593 16.1098 12.4139 15.4105 13.1631C14.7113 13.9123 13.8204 14.4225 12.8505 14.6292C11.8805 14.8359 10.8752 14.7298 9.96158 14.3244C9.04795 13.9189 8.26706 13.2322 7.71765 12.3513C7.16824 11.4703 6.875 10.4345 6.875 9.375C6.875 7.9542 7.40178 6.59159 8.33947 5.58693C9.27715 4.58227 10.5489 4.01786 11.875 4.01786ZM11.875 1.875C10.4905 1.875 9.13715 2.31487 7.98601 3.13898C6.83486 3.96309 5.93766 5.13443 5.40784 6.50487C4.87803 7.87532 4.73941 9.38332 5.0095 10.8382C5.2796 12.293 5.94628 13.6294 6.92525 14.6783C7.90422 15.7272 9.1515 16.4415 10.5094 16.7309C11.8672 17.0203 13.2747 16.8718 14.5538 16.3041C15.8329 15.7364 16.9261 14.7751 17.6953 13.5418C18.4645 12.3084 18.875 10.8584 18.875 9.375C18.875 7.38588 18.1375 5.47822 16.8247 4.0717C15.512 2.66518 13.7315 1.875 11.875 1.875ZM21.875 31.875H19.875V26.5179C19.875 25.0971 19.3482 23.7344 18.4105 22.7298C17.4729 21.7251 16.2011 21.1607 14.875 21.1607H8.875C7.54892 21.1607 6.27715 21.7251 5.33947 22.7298C4.40178 23.7344 3.875 25.0971 3.875 26.5179V31.875H1.875V26.5179C1.875 24.5287 2.6125 22.6211 3.92525 21.2146C5.23801 19.808 7.01848 19.0179 8.875 19.0179H14.875C16.7315 19.0179 18.512 19.808 19.8247 21.2146C21.1375 22.6211 21.875 24.5287 21.875 26.5179V31.875ZM21.875 4.01786H31.875V6.16071H21.875V4.01786ZM21.875 9.375H31.875V11.5179H21.875V9.375ZM21.875 14.7321H28.875V16.875H21.875V14.7321Z" fill="#6C6F71"/>
</g>
<defs>
<clipPath id="clip0_13_172">
<rect width="30" height="30" fill="white"/>
</clipPath>
</defs>
</svg>
