<svg width="30" height="30" viewBox="0 0 30 30" fill="none" xmlns="http://www.w3.org/2000/svg">
<g clip-path="url(#clip0_45_42)">
<path d="M30.3516 17.5C30.3516 17.7175 30.2651 17.9262 30.1113 18.08C29.9575 18.2339 29.7488 18.3203 29.5312 18.3203H17.5C17.2824 18.3203 17.0738 18.2339 16.9199 18.08C16.7661 17.9262 16.6797 17.7175 16.6797 17.5C16.6797 17.2824 16.7661 17.0738 16.9199 16.9199C17.0738 16.7661 17.2824 16.6797 17.5 16.6797H29.5312C29.7488 16.6797 29.9575 16.7661 30.1113 16.9199C30.2651 17.0738 30.3516 17.2824 30.3516 17.5ZM17.5 9.57029H29.5312C29.7488 9.57029 29.9575 9.48387 30.1113 9.33003C30.2651 9.17619 30.3516 8.96754 30.3516 8.74998C30.3516 8.53242 30.2651 8.32377 30.1113 8.16993C29.9575 8.01609 29.7488 7.92967 29.5312 7.92967H17.5C17.2824 7.92967 17.0738 8.01609 16.9199 8.16993C16.7661 8.32377 16.6797 8.53242 16.6797 8.74998C16.6797 8.96754 16.7661 9.17619 16.9199 9.33003C17.0738 9.48387 17.2824 9.57029 17.5 9.57029ZM29.5312 25.4297H17.5C17.2824 25.4297 17.0738 25.5161 16.9199 25.6699C16.7661 25.8238 16.6797 26.0324 16.6797 26.25C16.6797 26.4675 16.7661 26.6762 16.9199 26.83C17.0738 26.9839 17.2824 27.0703 17.5 27.0703H29.5312C29.7488 27.0703 29.9575 26.9839 30.1113 26.83C30.2651 26.6762 30.3516 26.4675 30.3516 26.25C30.3516 26.0324 30.2651 25.8238 30.1113 25.6699C29.9575 25.5161 29.7488 25.4297 29.5312 25.4297ZM12.0176 5.96092L7.83398 9.81639L6.02929 8.14842C5.9503 8.07481 5.85757 8.01748 5.75642 7.9797C5.65526 7.94192 5.54766 7.92444 5.43974 7.92825C5.33183 7.93205 5.22573 7.95708 5.12749 8.0019C5.02925 8.04671 4.9408 8.11044 4.86718 8.18943C4.71852 8.34898 4.63932 8.56105 4.64701 8.77898C4.6547 8.99692 4.74866 9.20288 4.9082 9.35154L7.28711 11.539C7.43376 11.6807 7.63009 11.7592 7.83398 11.7578C7.93725 11.7603 8.03999 11.7423 8.13622 11.7047C8.23245 11.6671 8.32026 11.6108 8.39453 11.539L13.1387 7.16404C13.2177 7.09043 13.2814 7.00198 13.3262 6.90374C13.371 6.8055 13.396 6.6994 13.3999 6.59148C13.4037 6.48357 13.3862 6.37597 13.3484 6.27481C13.3106 6.17366 13.2533 6.08093 13.1797 6.00193C13.1061 5.92294 13.0176 5.85921 12.9194 5.8144C12.8211 5.76958 12.715 5.74455 12.6071 5.74075C12.4992 5.73694 12.3916 5.75442 12.2905 5.7922C12.1893 5.82998 12.0966 5.88731 12.0176 5.96092ZM12.0176 14.7109L7.83398 18.5664L6.02929 16.8984C5.86975 16.7498 5.65768 16.6706 5.43974 16.6782C5.22181 16.6859 5.01585 16.7799 4.86718 16.9394C4.71852 17.099 4.63932 17.311 4.64701 17.529C4.6547 17.7469 4.74866 17.9529 4.9082 18.1015L7.28711 20.289C7.43376 20.4307 7.63009 20.5092 7.83398 20.5078C7.93725 20.5103 8.03999 20.4923 8.13622 20.4547C8.23245 20.4171 8.32026 20.3608 8.39453 20.289L13.1387 15.914C13.2177 15.8404 13.2814 15.752 13.3262 15.6537C13.371 15.5555 13.396 15.4494 13.3999 15.3415C13.4037 15.2336 13.3862 15.126 13.3484 15.0248C13.3106 14.9237 13.2533 14.8309 13.1797 14.7519C13.1061 14.6729 13.0176 14.6092 12.9194 14.5644C12.8211 14.5196 12.715 14.4946 12.6071 14.4907C12.4992 14.4869 12.3916 14.5044 12.2905 14.5422C12.1893 14.58 12.0966 14.6373 12.0176 14.7109ZM12.0176 23.4609L7.83398 27.3164L6.02929 25.6484C5.86975 25.4998 5.65768 25.4206 5.43974 25.4282C5.22181 25.4359 5.01585 25.5299 4.86718 25.6894C4.71852 25.849 4.63932 26.061 4.64701 26.279C4.6547 26.4969 4.74866 26.7029 4.9082 26.8515L7.28711 29.039C7.43376 29.1807 7.63009 29.2592 7.83398 29.2578C7.93725 29.2603 8.03999 29.2423 8.13622 29.2047C8.23245 29.1671 8.32026 29.1108 8.39453 29.039L13.1387 24.664C13.2177 24.5904 13.2814 24.502 13.3262 24.4037C13.371 24.3055 13.396 24.1994 13.3999 24.0915C13.4037 23.9836 13.3862 23.876 13.3484 23.7748C13.3106 23.6737 13.2533 23.5809 13.1797 23.5019C13.1061 23.4229 13.0176 23.3592 12.9194 23.3144C12.8211 23.2696 12.715 23.2446 12.6071 23.2407C12.4992 23.2369 12.3916 23.2544 12.2905 23.2922C12.1893 23.33 12.0966 23.3873 12.0176 23.4609Z" fill="#FFD0EC"/>
</g>
<defs>
<clipPath id="clip0_45_42">
<rect width="30" height="30" fill="white"/>
</clipPath>
</defs>
</svg>
