<svg width="29" height="29" viewBox="0 0 29 29" fill="none" xmlns="http://www.w3.org/2000/svg">
<path d="M10.875 3.01786C11.8639 3.01786 12.8306 3.33205 13.6529 3.9207C14.4751 4.50935 15.116 5.34602 15.4944 6.32491C15.8728 7.3038 15.9719 8.38094 15.7789 9.42013C15.586 10.4593 15.1098 11.4139 14.4105 12.1631C13.7113 12.9123 12.8204 13.4225 11.8505 13.6292C10.8805 13.8359 9.87521 13.7298 8.96158 13.3244C8.04795 12.9189 7.26706 12.2322 6.71765 11.3513C6.16824 10.4703 5.875 9.43454 5.875 8.375C5.875 6.9542 6.40178 5.59159 7.33947 4.58693C8.27715 3.58227 9.54892 3.01786 10.875 3.01786ZM10.875 0.875C9.49053 0.875 8.13715 1.31487 6.98601 2.13898C5.83486 2.96309 4.93766 4.13443 4.40784 5.50487C3.87803 6.87532 3.73941 8.38332 4.0095 9.83818C4.2796 11.293 4.94628 12.6294 5.92525 13.6783C6.90422 14.7272 8.1515 15.4415 9.50937 15.7309C10.8672 16.0203 12.2747 15.8718 13.5538 15.3041C14.8329 14.7364 15.9261 13.7751 16.6953 12.5418C17.4645 11.3084 17.875 9.85836 17.875 8.375C17.875 6.38588 17.1375 4.47822 15.8247 3.0717C14.512 1.66518 12.7315 0.875 10.875 0.875ZM20.875 30.875H18.875V25.5179C18.875 24.0971 18.3482 22.7344 17.4105 21.7298C16.4729 20.7251 15.2011 20.1607 13.875 20.1607H7.875C6.54892 20.1607 5.27715 20.7251 4.33947 21.7298C3.40178 22.7344 2.875 24.0971 2.875 25.5179V30.875H0.875V25.5179C0.875 23.5287 1.6125 21.6211 2.92525 20.2146C4.23801 18.808 6.01848 18.0179 7.875 18.0179H13.875C15.7315 18.0179 17.512 18.808 18.8247 20.2146C20.1375 21.6211 20.875 23.5287 20.875 25.5179V30.875ZM20.875 3.01786H30.875V5.16071H20.875V3.01786ZM20.875 8.375H30.875V10.5179H20.875V8.375ZM20.875 13.7321H27.875V15.875H20.875V13.7321Z" fill="#FFD0EC"/>
</svg>
