<svg width="40" height="36" viewBox="0 0 40 36" fill="none" xmlns="http://www.w3.org/2000/svg">
<rect width="40" height="36" rx="5" fill="white"/>
<path d="M23.2875 26.75C23.1008 26.7506 22.9162 26.7094 22.7475 26.6294C22.5788 26.5493 22.4301 26.4325 22.3125 26.2875L16.275 18.7875C16.0911 18.5638 15.9906 18.2833 15.9906 17.9937C15.9906 17.7042 16.0911 17.4236 16.275 17.2L22.525 9.69998C22.7372 9.44471 23.0421 9.28418 23.3726 9.2537C23.7031 9.22323 24.0322 9.32531 24.2875 9.53748C24.5428 9.74965 24.7033 10.0545 24.7338 10.3851C24.7643 10.7156 24.6622 11.0447 24.45 11.3L18.8625 18L24.2625 24.7C24.4154 24.8835 24.5125 25.1069 24.5423 25.3438C24.5721 25.5808 24.5335 25.8213 24.4309 26.0369C24.3284 26.2526 24.1662 26.4344 23.9635 26.5607C23.7609 26.6871 23.5263 26.7528 23.2875 26.75Z" fill="black"/>
</svg>
