<svg width="18" height="16" viewBox="0 0 18 16" fill="none" xmlns="http://www.w3.org/2000/svg">
<path d="M12 12.0004L8 16.0004H18V12.0004H12ZM9.06 3.19038L0 12.2504V16.0004H3.75L12.81 6.94038L9.06 3.19038ZM2.92 14.0004H2V13.0804L9.06 6.02038L9.98 6.94038L2.92 14.0004ZM15.71 4.04038C15.8027 3.94787 15.8763 3.83798 15.9264 3.71701C15.9766 3.59603 16.0024 3.46635 16.0024 3.33538C16.0024 3.20442 15.9766 3.07473 15.9264 2.95376C15.8763 2.83279 15.8027 2.7229 15.71 2.63038L13.37 0.290383C13.1825 0.104375 12.9291 0 12.665 0C12.4009 0 12.1475 0.104375 11.96 0.290383L10.13 2.12038L13.88 5.87038L15.71 4.04038Z" fill="black"/>
</svg>
