<svg width="80" height="80" viewBox="0 0 80 80" fill="none" xmlns="http://www.w3.org/2000/svg">
<path d="M1.11112 79.9575C1.39572 80.0409 1.69807 79.9948 1.95265 79.8291C2.20722 79.6634 2.39351 79.3916 2.47112 79.0725C4.76001 69.465 14.0622 66.975 19.6222 65.485C21.0156 65.1125 22.1156 64.8175 22.8311 64.47C29.1645 61.3775 31.2289 56.4024 31.8467 52.7724C31.8834 52.5565 31.8689 52.3334 31.8045 52.1258C31.7401 51.9182 31.6282 51.7334 31.48 51.5899C28.1822 48.3874 25.4 43.58 23.6445 38.0499C23.5949 37.8914 23.517 37.7459 23.4156 37.6224C21.0933 34.7824 19.76 31.7799 19.76 29.3874C19.76 27.9899 20.2289 27.0524 21.2845 26.3449C21.4426 26.2386 21.5747 26.0897 21.669 25.9117C21.7632 25.7336 21.8167 25.532 21.8245 25.3249C22.3156 12.5899 30.3778 2.56495 40.2667 2.49995L40.5045 2.51745C50.4422 2.67245 58.4533 12.9124 58.74 25.8274C58.744 26.004 58.7814 26.1775 58.8496 26.3366C58.9178 26.4956 59.0153 26.6365 59.1356 26.7499C59.8311 27.4124 60.1556 28.2524 60.1556 29.3924C60.1556 31.3949 59.2067 33.8574 57.4867 36.3224C57.4047 36.441 57.3416 36.5747 57.3 36.7174C55.5222 43.0575 52.3311 48.655 48.5489 52.08C48.3922 52.2223 48.2727 52.4097 48.2031 52.6223C48.1334 52.8349 48.1162 53.0648 48.1533 53.2875C48.7711 56.915 50.8356 61.8875 57.1689 64.985C57.9178 65.35 59.08 65.635 60.5533 65.9925C66.0578 67.3325 75.2689 69.58 77.5289 79.0725C77.5668 79.231 77.6322 79.3796 77.7211 79.5098C77.8101 79.64 77.921 79.7491 78.0475 79.8311C78.174 79.913 78.3136 79.9662 78.4584 79.9874C78.6031 80.0087 78.7502 79.9976 78.8911 79.955C79.0321 79.9123 79.1642 79.8388 79.2799 79.7387C79.3956 79.6386 79.4926 79.5138 79.5655 79.3715C79.6383 79.2292 79.6855 79.0721 79.7044 78.9093C79.7233 78.7465 79.7135 78.581 79.6756 78.4225C77.0644 67.455 66.6289 64.9125 61.0245 63.5475C59.7245 63.23 58.6022 62.9575 58.0556 62.6875C53.9222 60.6675 51.3756 57.59 50.4756 53.525C54.3133 49.8174 57.5245 44.0974 59.36 37.6824C61.3089 34.8324 62.38 31.8974 62.38 29.3899C62.38 27.7174 61.9 26.3224 60.9489 25.2324C60.42 11.2224 51.5333 0.189946 40.5045 0.0124463L40.1733 0.00744629C29.3445 0.0724463 20.42 10.8149 19.64 24.5824C18.2489 25.7324 17.5422 27.3449 17.5422 29.3924C17.5422 32.3499 19.0289 35.8874 21.6311 39.1324C23.4289 44.6899 26.2156 49.5724 29.5333 52.9899C28.6378 57.0699 26.0889 60.1575 21.9467 62.18C21.4111 62.4425 20.3445 62.73 19.1089 63.06C13.4622 64.57 2.95557 67.3825 0.324455 78.4275C0.24847 78.7477 0.288657 79.0888 0.436179 79.3757C0.583702 79.6626 0.826479 79.8719 1.11112 79.9575V79.9575Z" fill="#FFD0EC"/>
</svg>
