<svg width="24" height="25" viewBox="0 0 24 25" fill="none" xmlns="http://www.w3.org/2000/svg">
<path d="M9 21.2499H6C5.65324 21.2647 5.30697 21.2109 4.98101 21.0917C4.65505 20.9725 4.3558 20.7902 4.10038 20.5552C3.84495 20.3202 3.63837 20.0371 3.49246 19.7222C3.34654 19.4073 3.26415 19.0667 3.25 18.7199V6.27994C3.26415 5.93316 3.34654 5.59256 3.49246 5.27765C3.63837 4.96274 3.84495 4.67969 4.10038 4.4447C4.3558 4.20971 4.65505 4.02739 4.98101 3.90818C5.30697 3.78896 5.65324 3.73519 6 3.74994H9C9.19891 3.74994 9.38968 3.82896 9.53033 3.96961C9.67098 4.11027 9.75 4.30103 9.75 4.49994C9.75 4.69886 9.67098 4.88962 9.53033 5.03027C9.38968 5.17093 9.19891 5.24994 9 5.24994H6C5.70307 5.22412 5.4076 5.31359 5.17487 5.49977C4.94213 5.68596 4.78999 5.95459 4.75 6.24994V18.7199C4.78999 19.0153 4.94213 19.2839 5.17487 19.4701C5.4076 19.6563 5.70307 19.7458 6 19.7199H9C9.19891 19.7199 9.38968 19.799 9.53033 19.9396C9.67098 20.0803 9.75 20.271 9.75 20.4699C9.75 20.6689 9.67098 20.8596 9.53033 21.0003C9.38968 21.1409 9.19891 21.2199 9 21.2199V21.2499ZM16 17.2499C15.9015 17.2504 15.8038 17.2312 15.7128 17.1934C15.6218 17.1556 15.5392 17.1001 15.47 17.0299C15.3295 16.8893 15.2507 16.6987 15.2507 16.4999C15.2507 16.3012 15.3295 16.1106 15.47 15.9699L18.94 12.4999L15.47 9.02994C15.3963 8.96128 15.3372 8.87848 15.2962 8.78648C15.2552 8.69448 15.2332 8.59517 15.2314 8.49447C15.2296 8.39376 15.2482 8.29373 15.2859 8.20035C15.3236 8.10696 15.3797 8.02212 15.451 7.95091C15.5222 7.87969 15.607 7.82354 15.7004 7.78582C15.7938 7.7481 15.8938 7.72958 15.9945 7.73135C16.0952 7.73313 16.1945 7.75517 16.2865 7.79616C16.3785 7.83715 16.4613 7.89626 16.53 7.96994L20.53 11.9699C20.6705 12.1106 20.7493 12.3012 20.7493 12.4999C20.7493 12.6987 20.6705 12.8893 20.53 13.0299L16.53 17.0299C16.4608 17.1001 16.3782 17.1556 16.2872 17.1934C16.1962 17.2312 16.0985 17.2504 16 17.2499Z" fill="#FFD0EC"/>
<path d="M20 13.25H9C8.80109 13.25 8.61032 13.171 8.46967 13.0303C8.32902 12.8897 8.25 12.6989 8.25 12.5C8.25 12.3011 8.32902 12.1103 8.46967 11.9697C8.61032 11.829 8.80109 11.75 9 11.75H20C20.1989 11.75 20.3897 11.829 20.5303 11.9697C20.671 12.1103 20.75 12.3011 20.75 12.5C20.75 12.6989 20.671 12.8897 20.5303 13.0303C20.3897 13.171 20.1989 13.25 20 13.25Z" fill="#FFD0EC"/>
</svg>
