<svg width="250" height="140" viewBox="0 0 250 140" fill="none" xmlns="http://www.w3.org/2000/svg">
<path d="M163.161 61.13C162.873 62.4186 162.528 63.6941 162.125 64.9565C162.081 65.1031 162.032 65.2475 161.983 65.3941H156.379C155.901 65.3945 155.444 65.556 155.106 65.8431C154.769 66.1303 154.579 66.5195 154.578 66.9256V80.5166C154.409 80.7857 154.236 81.0526 154.064 81.3195C153.174 82.6978 152.248 84.0609 151.302 85.4064C135.868 107.275 114.342 125.576 88.6244 138.692L90.1471 135.769C89.5889 135.736 89.0283 135.703 88.4702 135.67C76.3174 134.964 64.1235 134.18 52.2563 131.857C39.8412 129.426 27.6962 125.21 17.9663 118.22C8.23378 111.228 1.0991 101.242 0.108856 90.4385C-0.221339 86.7255 0.220105 82.9921 1.41294 79.4095C3.69422 72.5134 8.67886 66.3086 15.8702 62.6374C27.1664 56.8724 41.9014 58.0473 53.8098 62.8431C65.7156 67.6367 75.407 75.572 84.8694 83.3695C75.3157 69.4335 62.0138 57.6228 46.0552 48.9064C40.7671 46.0272 35.1551 43.463 30.6592 39.7327C26.1659 36.0046 22.8505 30.7778 23.6454 25.481C24.5481 19.4732 30.3326 14.9137 36.1272 11.3978C38.442 9.99318 40.8314 8.66078 43.2955 7.43558C50.2475 3.97001 57.7681 1.35552 65.7104 0.386301C76.4692 -0.928601 88.0895 1.06673 96.3379 7.08771C105.631 13.8723 109.442 24.8137 109.08 35.2804C114.805 28.2005 123.635 22.7812 133.606 22.5515C143.959 22.3152 153.799 27.8789 158.984 35.5058C164.167 43.1305 165.098 52.477 163.161 61.13Z" fill="#E6E6E6"/>
<path d="M97.6632 90.5337C103.727 90.0794 109.328 89.5487 115.203 88.1344C120.899 86.7636 126.379 84.4687 130.433 80.7215C134.794 76.6912 137.148 71.4569 138.809 66.2465C139.735 63.3414 140.496 60.3957 141.214 57.4491C141.993 54.2519 142.685 51.0406 143.29 47.8152C144.495 41.3949 145.355 34.9368 145.871 28.4409C145.933 27.6524 145.99 26.8636 146.042 26.0746C146.074 25.5878 145.184 25.5894 145.152 26.0746C144.728 32.4777 143.967 38.8558 142.867 45.209C141.781 51.451 140.392 57.6659 138.63 63.796C137.137 68.9891 135.204 74.2634 131.375 78.5864C127.785 82.6404 122.599 85.2895 117 86.8735C111.302 88.4852 105.295 89.1287 99.3407 89.6072C98.6103 89.6659 98.394 89.7219 97.6632 89.7766C97.0972 89.819 97.0919 90.5764 97.6632 90.5336L97.6632 90.5337Z" fill="white"/>
<path d="M1.92683 79.968C9.57691 80.329 17.1492 81.464 24.4835 83.3492C31.821 85.2305 38.8721 87.8412 45.4907 91.1274C51.886 94.3052 57.823 98.1077 63.181 102.457C68.381 106.681 73.0154 111.382 76.9996 116.473C81.002 121.577 84.3188 127.047 86.888 132.78C87.2013 133.482 87.5031 134.187 87.7934 134.896C87.9809 135.353 88.8409 135.156 88.6515 134.694C86.2478 128.841 83.0791 123.235 79.2049 117.982C75.3315 112.729 70.7855 107.858 65.6503 103.457C60.4329 98.9874 54.6263 95.0456 48.3458 91.7095C35.1588 84.722 20.2115 80.4949 4.7312 79.3753C3.7974 79.3088 2.86261 79.254 1.92684 79.211C1.35456 79.1844 1.35632 79.9415 1.92684 79.968L1.92683 79.968Z" fill="white"/>
<path d="M43.5361 8.3229C48.4274 9.64618 53.0638 11.5734 57.2967 14.0429C61.622 16.5835 65.5668 19.5635 69.0436 22.9169C72.7074 26.4445 75.9648 30.2631 78.7708 34.3202C81.7472 38.6039 84.3328 43.0756 86.5049 47.6958C88.7415 52.4391 90.6227 57.2983 92.1371 62.244C93.6766 67.2483 94.879 72.3232 95.7386 77.4441C96.5939 82.5106 97.1115 87.6142 97.2889 92.7305C97.4677 97.6228 97.2977 102.52 96.7798 107.395C96.3061 111.942 95.441 116.455 94.1915 120.895C93.0819 124.905 91.5181 128.815 89.5221 132.569C89.0597 133.421 88.5691 134.261 88.0503 135.089C87.7811 135.519 88.5491 135.902 88.8187 135.471C91.0246 131.886 92.7859 128.115 94.0744 124.219C95.52 119.883 96.5678 115.457 97.2085 110.983C97.9187 106.128 98.2646 101.24 98.244 96.3483C98.2312 91.209 97.8716 86.0746 97.1669 80.9704C96.4619 75.8024 95.4151 70.6724 94.0316 65.6046C92.6515 60.5286 90.9007 55.5306 88.7896 50.6398C86.7549 45.9053 84.3187 41.3027 81.5001 36.8683C78.8157 32.6368 75.6873 28.6203 72.1531 24.8677C68.7968 21.2947 64.9649 18.0646 60.7344 15.242C56.6549 12.5284 52.147 10.3165 47.3431 8.67127C46.1692 8.27381 44.9791 7.91436 43.7727 7.59293C43.2251 7.44638 42.9908 8.17697 43.5361 8.3229H43.5361Z" fill="white"/>
<path d="M96.3227 140C131.48 140 159.98 139.02 159.98 137.812C159.98 136.604 131.48 135.624 96.3227 135.624C61.1658 135.624 32.6655 136.604 32.6655 137.812C32.6655 139.02 61.1658 140 96.3227 140Z" fill="#E6E6E6"/>
<path d="M152.564 69.2861C152.533 69.4042 152.512 69.5241 152.503 69.6449L141.454 75.0669L138.769 73.7518L135.906 76.94L141.651 80.4232L154.256 71.9643C154.77 72.1262 155.33 72.151 155.861 72.0356C156.392 71.9202 156.869 71.67 157.229 71.3182C157.589 70.9665 157.814 70.5299 157.875 70.0665C157.936 69.6031 157.83 69.1348 157.571 68.7241C157.311 68.3133 156.911 67.9794 156.423 67.7669C155.935 67.5543 155.383 67.4731 154.839 67.5341C154.296 67.5952 153.787 67.7955 153.381 68.1084C152.974 68.4214 152.69 68.8322 152.564 69.2861Z" fill="#FFB8B8"/>
<path d="M127.402 72.6126L136.101 77.8869L139.992 73.7372L131.536 67.9651C131.172 67.7167 130.752 67.5342 130.302 67.4286C129.853 67.3231 129.383 67.2967 128.92 67.3512C128.458 67.4057 128.014 67.5398 127.615 67.7454C127.216 67.951 126.871 68.2237 126.6 68.5468C126.073 69.1764 125.861 69.9585 126.011 70.721C126.161 71.4834 126.662 72.1639 127.402 72.6126Z" fill="#FFD0EC"/>
<path d="M109.444 132.794L112.494 133.473L117.029 123.789L112.527 122.785L109.444 132.794Z" fill="#FFB8B8"/>
<path d="M117.635 137.194L108.048 135.057L109.019 131.906L114.901 133.218C115.883 133.437 116.723 133.978 117.236 134.724C117.749 135.47 117.892 136.358 117.635 137.194Z" fill="#2F2E41"/>
<path d="M136.559 134.641L139.663 134.169L139.001 123.76L134.42 124.456L136.559 134.641Z" fill="#FFB8B8"/>
<path d="M146.164 135.712L136.408 137.194L135.735 133.988L141.722 133.078C142.216 133.003 142.724 133.011 143.215 133.103C143.706 133.195 144.171 133.368 144.584 133.612C144.997 133.857 145.348 134.168 145.619 134.528C145.891 134.888 146.076 135.29 146.164 135.712Z" fill="#2F2E41"/>
<path d="M130.446 58.0895C131.211 58.2479 131.833 58.9109 132.207 59.679C132.552 60.4857 132.785 61.3237 132.903 62.1763C133.196 63.7639 133.478 65.4827 132.871 66.9532C132.159 68.6766 130.262 69.5793 128.617 69.1551C126.972 68.7309 125.663 67.1386 125.216 65.3058C124.809 63.4538 125.072 61.5403 125.968 59.8177C126.436 58.9125 127.08 58.0775 127.936 57.6691C128.356 57.4531 128.857 57.3804 129.337 57.4655C129.817 57.5507 130.242 57.7874 130.526 58.1281" fill="#2F2E41"/>
<path d="M134.774 86.8351L140.684 131.86L135.803 133.436L126.801 103.244L114.268 130.85L108.926 131.102C108.926 131.102 116.256 88.1478 121.688 87.1716L134.774 86.8351Z" fill="#2F2E41"/>
<path d="M129.81 63.8355C133.299 63.8355 136.128 61.4296 136.128 58.4619C136.128 55.4941 133.299 53.0883 129.81 53.0883C126.322 53.0883 123.493 55.4941 123.493 58.4619C123.493 61.4296 126.322 63.8355 129.81 63.8355Z" fill="#FFB8B8"/>
<path d="M132.522 66.0898L125.695 65.3324C125.695 65.3324 121.243 69.877 121.54 77.7037C121.837 85.5305 120.798 87.929 120.798 87.929L135.031 88.1478C132.974 85.7412 141.58 71.9189 132.522 66.0898Z" fill="#FFD0EC"/>
<path d="M136.189 89.2417C136.046 89.2426 135.904 89.253 135.764 89.2728L127.031 81.3646L127.921 78.8398L123.617 77.1987L120.946 82.7532L133.511 91.2551C133.443 91.7178 133.543 92.1871 133.797 92.6005C134.05 93.0139 134.446 93.3518 134.931 93.5693C135.416 93.7867 135.967 93.8735 136.511 93.818C137.055 93.7625 137.567 93.5674 137.978 93.2586C138.388 92.9498 138.679 92.5419 138.81 92.0892C138.942 91.6366 138.908 91.1606 138.714 90.7245C138.52 90.2885 138.174 89.913 137.723 89.6481C137.272 89.3833 136.737 89.2415 136.189 89.2417Z" fill="#FFB8B8"/>
<path d="M126.624 69.1666L122.579 77.5775L128.218 79.8497L132.888 71.526C133.089 71.1679 133.202 70.7787 133.22 70.3821C133.238 69.9856 133.16 69.5902 132.992 69.22C132.824 68.8499 132.569 68.5128 132.242 68.2295C131.916 67.9462 131.525 67.7225 131.093 67.5723C130.676 67.4273 130.23 67.3536 129.78 67.3553C129.33 67.3569 128.885 67.434 128.47 67.582C128.055 67.7301 127.678 67.9462 127.362 68.2181C127.045 68.49 126.794 68.8123 126.624 69.1666Z" fill="#FFD0EC"/>
<path d="M128.158 63.3471C129.148 62.8614 129.253 61.6897 129.119 60.7244C128.984 59.7591 128.76 58.683 129.427 57.8938C130.223 56.9518 131.822 56.933 133.186 56.9023C134.549 56.8715 136.209 56.5319 136.562 55.4114C136.796 54.671 136.296 53.8764 135.58 53.4116C134.863 52.9469 133.967 52.7414 133.095 52.5461C131.146 52.1093 129.133 51.6687 127.137 51.9088C125.16 52.1466 123.372 53.0371 122.161 54.3874C120.95 55.7378 120.412 57.4395 120.665 59.1244C120.988 61.2797 121.457 62.2208 121.149 63.1711C120.576 64.9411 118.106 66.0782 118.057 67.9136C118.018 69.3493 119.509 70.4568 120.964 71.1858C122.117 71.764 123.362 72.2547 124.692 72.39C126.022 72.5254 127.453 72.2662 128.444 71.4997C129.721 70.511 130.037 68.8592 129.671 67.4235C129.304 65.9878 128.365 64.7128 127.435 63.4746" fill="#2F2E41"/>
<path d="M247.685 64.9565H156.379C155.765 64.9573 155.177 65.165 154.743 65.5341C154.309 65.9032 154.065 66.4036 154.064 66.9256V116.809C154.065 117.331 154.309 117.831 154.743 118.2C155.177 118.569 155.765 118.777 156.379 118.778H247.685C248.299 118.777 248.887 118.569 249.321 118.2C249.755 117.831 249.999 117.331 250 116.809V66.9256C249.999 66.4036 249.755 65.9032 249.321 65.5341C248.887 65.165 248.299 64.9573 247.685 64.9565ZM249.486 116.809C249.485 117.215 249.295 117.604 248.958 117.891C248.62 118.178 248.163 118.34 247.685 118.34H156.379C155.902 118.34 155.444 118.178 155.107 117.891C154.769 117.604 154.579 117.215 154.579 116.809V66.9256C154.579 66.5196 154.769 66.1303 155.107 65.8432C155.444 65.5561 155.902 65.3946 156.379 65.3941H247.685C248.163 65.3946 248.62 65.5561 248.958 65.8432C249.295 66.1303 249.485 66.5196 249.486 66.9256V116.809Z" fill="#3F3D56"/>
<path d="M175.868 89.7878H161.465C160.886 89.7872 160.33 89.5911 159.92 89.2424C159.51 88.8938 159.28 88.4211 159.279 87.9281V75.6761C159.28 75.183 159.51 74.7104 159.92 74.3617C160.33 74.0131 160.886 73.817 161.465 73.8164H175.868C176.448 73.817 177.004 74.0131 177.414 74.3617C177.823 74.7104 178.054 75.183 178.055 75.6761V87.9281C178.054 88.4211 177.823 88.8938 177.414 89.2424C177.004 89.5911 176.448 89.7872 175.868 89.7878Z" fill="#FFD0EC"/>
<path d="M242.93 102.807H161.14C160.697 102.807 160.271 102.658 159.958 102.391C159.644 102.124 159.468 101.763 159.468 101.385C159.468 101.008 159.644 100.646 159.958 100.38C160.271 100.113 160.697 99.9633 161.14 99.9633H242.93C243.373 99.9633 243.798 100.113 244.112 100.38C244.426 100.646 244.602 101.008 244.602 101.385C244.602 101.763 244.426 102.124 244.112 102.391C243.798 102.658 243.373 102.807 242.93 102.807Z" fill="#CCCCCC"/>
<path d="M242.985 95.9157H161.195C160.752 95.9157 160.326 95.7659 160.013 95.4992C159.699 95.2325 159.523 94.8708 159.523 94.4936C159.523 94.1165 159.699 93.7548 160.013 93.4881C160.326 93.2214 160.752 93.0715 161.195 93.0715H242.985C243.428 93.0715 243.853 93.2214 244.167 93.4881C244.48 93.7548 244.657 94.1165 244.657 94.4936C244.657 94.8708 244.48 95.2325 244.167 95.4992C243.853 95.7659 243.428 95.9157 242.985 95.9157Z" fill="#CCCCCC"/>
<path d="M202.604 86.5058H190.516C190.072 86.5058 189.647 86.356 189.334 86.0893C189.02 85.8226 188.844 85.4609 188.844 85.0837C188.844 84.7066 189.02 84.3448 189.334 84.0781C189.647 83.8115 190.072 83.6616 190.516 83.6616H202.604C203.048 83.6616 203.473 83.8115 203.786 84.0781C204.1 84.3448 204.276 84.7066 204.276 85.0837C204.276 85.4609 204.1 85.8226 203.786 86.0893C203.473 86.356 203.048 86.5058 202.604 86.5058Z" fill="#CCCCCC"/>
<path d="M242.985 79.5068H190.516C190.072 79.5068 189.647 79.357 189.334 79.0903C189.02 78.8236 188.844 78.4619 188.844 78.0847C188.844 77.7075 189.02 77.3458 189.334 77.0791C189.647 76.8124 190.072 76.6626 190.516 76.6626H242.985C243.428 76.6626 243.853 76.8124 244.167 77.0791C244.48 77.3458 244.657 77.7075 244.657 78.0847C244.657 78.4619 244.48 78.8236 244.167 79.0903C243.853 79.357 243.428 79.5068 242.985 79.5068Z" fill="#CCCCCC"/>
<path d="M200.547 109.809H161.14C160.697 109.809 160.271 109.659 159.958 109.392C159.644 109.125 159.468 108.764 159.468 108.386C159.468 108.009 159.644 107.648 159.958 107.381C160.271 107.114 160.697 106.964 161.14 106.964H200.547C200.99 106.964 201.415 107.114 201.729 107.381C202.042 107.648 202.218 108.009 202.218 108.386C202.218 108.764 202.042 109.125 201.729 109.392C201.415 109.659 200.99 109.809 200.547 109.809Z" fill="#CCCCCC"/>
</svg>
